<?xml version="1.0" standalone="no"?><!DOCTYPE svg PUBLIC "-//W3C//DTD SVG 1.1//EN" "http://www.w3.org/Graphics/SVG/1.1/DTD/svg11.dtd"><svg t="1592962335736" class="icon" viewBox="0 0 1094 1024" version="1.1" xmlns="http://www.w3.org/2000/svg" p-id="2262" xmlns:xlink="http://www.w3.org/1999/xlink" width="213.671875" height="200"><defs><style type="text/css"></style></defs><path d="M691.81 516.493c-32.758 32.762-49.06 72.042-49.06 118.155 0 46.029 16.302 85.392 49.06 118.15 32.763 32.76 72.043 49.065 118.155 49.065 46.11 0 85.469-16.386 118.148-49.064 32.762-32.759 49.063-72.039 49.063-118.151 0-46.037-16.3-85.393-49.063-118.155-32.759-32.759-72.039-49.06-118.148-49.06-46.036 0-85.392 16.301-118.155 49.06z" p-id="2263"></path><path d="M1094.537 851.637V79.87c0-44.112-35.758-79.87-79.87-79.87H79.87C35.758 0 0 35.758 0 79.87v864.26C0 988.242 35.758 1024 79.87 1024h934.797c31.724 0 59.044-18.542 71.935-45.338L958.858 851.074c-44.483 30.898-94.242 46.349-148.893 46.349-35.553 0-69.638-6.909-102.085-20.73-32.53-13.818-60.473-32.527-83.999-55.973-23.521-23.522-42.15-51.468-55.972-83.995-13.19-31.057-20.012-63.476-20.61-97.29v-9.575c0.594-33.825 7.415-66.312 20.61-97.294 13.821-32.53 32.527-60.477 55.972-83.998 23.446-23.518 51.468-42.148 84-55.969 32.526-13.813 66.527-20.726 102.084-20.726 35.554 0 69.63 6.909 102.082 20.726 32.527 13.821 60.473 32.527 83.995 55.969 23.525 23.525 42.155 51.472 55.972 83.998 13.822 32.527 20.73 66.528 20.73 102.086 0 54.726-15.45 104.41-46.344 148.889l68.137 68.096zM467.56 421.268c0 19.7-13.41 35.658-29.952 35.658H108.151c-16.545 0-29.95-15.958-29.95-35.658v-28.525c0-19.696 13.41-35.658 29.95-35.658H437.61c16.541 0 29.952 15.962 29.952 35.658v28.525zM679.215 205.62c0 19.696-20.698 35.658-46.233 35.658H124.43c-25.534 0-46.233-15.962-46.233-35.658v-28.525c0-19.696 20.699-35.658 46.233-35.658h508.553c25.535 0 46.233 15.962 46.233 35.658v28.525z" p-id="2264"></path></svg>