<?xml version="1.0" standalone="no"?><!DOCTYPE svg PUBLIC "-//W3C//DTD SVG 1.1//EN" "http://www.w3.org/Graphics/SVG/1.1/DTD/svg11.dtd"><svg t="1591585074593" class="icon" viewBox="0 0 1024 1024" version="1.1" xmlns="http://www.w3.org/2000/svg" p-id="1209" xmlns:xlink="http://www.w3.org/1999/xlink" width="200" height="200"><defs><style type="text/css"></style></defs><path d="M512 272c0-22-18-40-40-40H264.60053333L291.2 105.00053333a44.74026667 44.74026667 0 0 0-12.19946667-41.2L247.2 32 49.6 229.6C38.8 240.4 32 255.39946667 32 272v260C32 565.2 58.8 592 92 592h270c24.8 0 46.20053333-15.00053333 55.2-36.60053333l90.60053333-211.59893334c2.59946667-6.80106667 4.19946667-14.00106667 4.19946667-21.80053333V272z m420 160H662c-24.8 0-46.20053333 15.00053333-55.2 36.60053333l-90.60053333 211.59893334C513.6 687.00053333 512 694.20053333 512 702V752c0 22 18 40 40 40h207.39946667L732.8 918.99946667a44.74026667 44.74026667 0 0 0 12.19946667 41.2L776.8 992 974.4 794.4C985.2 783.6 992 768.60053333 992 752V492c0-33.2-26.8-60-60-60z" p-id="1210"></path></svg>