<?xml version="1.0" standalone="no"?><!DOCTYPE svg PUBLIC "-//W3C//DTD SVG 1.1//EN" "http://www.w3.org/Graphics/SVG/1.1/DTD/svg11.dtd"><svg t="1594169969200" class="icon" viewBox="0 0 1024 1024" version="1.1" xmlns="http://www.w3.org/2000/svg" p-id="2801" xmlns:xlink="http://www.w3.org/1999/xlink" width="200" height="200"><defs><style type="text/css"></style></defs><path d="M858.624 377.6H165.427c-8.55 0-15.923 3.174-22.17 9.523s-9.369 13.824-9.369 22.477v479.949c0 8.704 3.123 16.179 9.37 22.528a30.054 30.054 0 0 0 22.17 9.523h693.145a30.208 30.208 0 0 0 22.22-9.523 31.232 31.232 0 0 0 9.37-22.528V409.6a31.334 31.334 0 0 0-9.318-22.528 30.464 30.464 0 0 0-22.221-9.472zM597.248 528.026a30.106 30.106 0 0 1-22.17 9.523H449.024c-8.55 0-15.974-3.226-22.17-9.523s-9.318-13.824-9.318-22.477a30.413 30.413 0 0 1 9.318-22.426 30.208 30.208 0 0 1 22.17-9.574h125.952c8.602 0 15.974 3.225 22.22 9.523 6.247 6.349 9.422 13.824 9.422 22.477s-3.124 16.128-9.37 22.477z m315.085-416.103a30.106 30.106 0 0 0-22.17-9.523H133.94a29.85 29.85 0 0 0-22.17 9.523 30.976 30.976 0 0 0-9.369 22.528V262.4c0 8.653 3.123 16.128 9.318 22.477a30.106 30.106 0 0 0 22.17 9.523h756.173a30.157 30.157 0 0 0 22.22-9.523A31.334 31.334 0 0 0 921.6 262.4V134.451a31.283 31.283 0 0 0-9.267-22.528z" p-id="2802"></path></svg>