<?xml version="1.0" standalone="no"?><!DOCTYPE svg PUBLIC "-//W3C//DTD SVG 1.1//EN" "http://www.w3.org/Graphics/SVG/1.1/DTD/svg11.dtd"><svg t="1591839038495" class="icon" viewBox="0 0 1024 1024" version="1.1" xmlns="http://www.w3.org/2000/svg" p-id="1217" xmlns:xlink="http://www.w3.org/1999/xlink" width="200" height="200"><defs><style type="text/css"></style></defs><path d="M563.2 13.722l340.992 196.864a102.4 102.4 0 0 1 51.2 88.678v393.728a102.4 102.4 0 0 1-51.2 88.73L563.2 978.586a102.4 102.4 0 0 1-102.4 0L119.808 781.722a102.4 102.4 0 0 1-51.2-88.679V299.315a102.4 102.4 0 0 1 51.2-88.73L460.8 13.723a102.4 102.4 0 0 1 102.4 0zM512 342.528a153.6 153.6 0 1 0 0 307.2 153.6 153.6 0 0 0 0-307.2z" p-id="1218"></path></svg>