<?xml version="1.0" standalone="no"?><!DOCTYPE svg PUBLIC "-//W3C//DTD SVG 1.1//EN" "http://www.w3.org/Graphics/SVG/1.1/DTD/svg11.dtd"><svg t="1594169765701" class="icon" viewBox="0 0 1024 1024" version="1.1" xmlns="http://www.w3.org/2000/svg" p-id="2562" xmlns:xlink="http://www.w3.org/1999/xlink" width="200" height="200"><defs><style type="text/css"></style></defs><path d="M364.8 512c-45.653-30.293-96-54.187-150.613-68.693C268.8 457.813 319.147 481.707 364.8 512z m445.013-68.693c-55.04 14.506-106.24 38.826-152.32 69.973 46.08-31.147 97.28-55.467 152.32-69.973z" p-id="2563"></path><path d="M660.907 410.88c-7.68-119.04-55.894-235.093-146.347-325.547-91.307 91.307-141.653 207.36-151.467 325.547 54.614 29.013 104.96 66.56 148.907 112.213 43.947-45.226 94.293-82.773 148.907-112.213zM383.573 523.947c-5.973-4.267-12.8-8.107-19.2-12.374 6.4 4.694 13.227 8.107 19.2 12.374z m273.92-10.667c-5.546 3.84-11.52 6.827-17.066 11.093 5.546-4.266 11.52-7.253 17.066-11.093zM512 659.2C420.267 519.253 263.68 426.667 85.333 426.667c0 226.986 143.36 418.986 342.614 490.24 26.88 9.813 55.04 17.066 84.053 21.76 29.013-5.12 56.747-12.374 84.053-21.76 199.254-71.254 342.614-263.254 342.614-490.24-178.347 0-334.934 92.586-426.667 232.533z" p-id="2564"></path></svg>