<?xml version="1.0" standalone="no"?><!DOCTYPE svg PUBLIC "-//W3C//DTD SVG 1.1//EN" "http://www.w3.org/Graphics/SVG/1.1/DTD/svg11.dtd"><svg t="1594169683700" class="icon" viewBox="0 0 1024 1024" version="1.1" xmlns="http://www.w3.org/2000/svg" p-id="2443" xmlns:xlink="http://www.w3.org/1999/xlink" width="200" height="200"><defs><style type="text/css"></style></defs><path d="M512 17.067C238.933 17.067 17.067 238.933 17.067 512S238.933 1006.933 512 1006.933 1006.933 785.067 1006.933 512 785.067 17.067 512 17.067z m281.6 512l-247.467 281.6c-25.6 25.6-34.133 25.6-59.733 0l-256-281.6c-17.067-25.6-42.667-59.734-42.667-102.4 0-85.334 68.267-162.134 162.134-162.134 68.266 0 119.466 34.134 162.133 76.8 42.667-42.666 93.867-76.8 162.133-76.8 93.867 0 162.134 76.8 162.134 162.134 0 42.666-17.067 76.8-42.667 102.4z" p-id="2444"></path></svg>