<?xml version="1.0" standalone="no"?><!DOCTYPE svg PUBLIC "-//W3C//DTD SVG 1.1//EN" "http://www.w3.org/Graphics/SVG/1.1/DTD/svg11.dtd"><svg t="1591860583535" class="icon" viewBox="0 0 1213 1024" version="1.1" xmlns="http://www.w3.org/2000/svg" p-id="1305" xmlns:xlink="http://www.w3.org/1999/xlink" width="236.9140625" height="200"><defs><style type="text/css"></style></defs><path d="M1046.54 392.855L920.957 193.208c-12.88-19.321-32.201-32.202-54.742-32.202h-515.22c-22.541 0-45.082 12.88-54.742 32.202L170.667 396.075c-16.101 25.761-12.88 57.963 9.66 77.283l383.195 370.315c25.761 25.761 64.403 25.761 90.164 0l383.195-370.315c22.54-22.54 25.76-54.742 9.66-80.503zM528.1 550.642c6.44 19.32 22.542 35.42 38.642 48.301 16.1 9.66 38.642 16.101 57.962 16.101 22.541 0 41.862-6.44 61.183-19.32 19.32-12.881 32.201-28.982 38.641-51.523 3.22-9.66 6.44-16.1 12.88-25.76 6.441-6.441 16.101-9.661 25.762-9.661s19.32 3.22 25.76 9.66c9.661 6.44 12.881 16.1 16.101 32.202 0 12.88-3.22 28.98-9.66 41.861-6.44 16.1-19.32 32.201-32.201 45.082-16.1 16.1-35.422 25.76-54.742 35.421-25.761 9.66-51.522 12.88-77.283 12.88-22.541 0-41.862-3.22-61.183-6.44-16.1-3.22-32.201-9.66-48.302-19.32-12.88-9.66-25.76-22.541-38.641-35.422-12.88-16.1-22.541-28.98-28.981-45.081-6.44-16.101-12.88-32.202-16.1-51.522-3.221-19.321-6.441-38.642-6.441-57.963 0-32.2 3.22-61.182 12.88-90.163 9.66-25.761 22.541-48.302 41.862-67.623 19.32-19.32 38.642-32.201 64.403-41.861 22.54-9.66 51.522-16.101 77.283-16.101 32.2 0 64.402 6.44 96.603 19.32 25.761 9.661 45.082 25.762 61.183 48.303 9.66 16.1 19.32 35.421 19.32 54.742 0 9.66-3.22 19.32-9.66 25.76s-16.1 9.661-25.76 9.661c-9.661 3.22-19.322 0-25.762-6.44-9.66-6.44-16.1-16.1-19.32-25.761-9.661-16.1-22.542-32.201-38.642-45.082-16.1-12.88-35.422-16.1-54.742-16.1-32.202-3.22-64.403 12.88-83.724 38.641-22.54 32.201-35.421 74.063-32.2 112.704 0 28.981 3.22 54.743 12.88 80.504z" p-id="1306"></path></svg>