<?xml version="1.0" standalone="no"?><!DOCTYPE svg PUBLIC "-//W3C//DTD SVG 1.1//EN" "http://www.w3.org/Graphics/SVG/1.1/DTD/svg11.dtd"><svg t="1592791375654" class="icon" viewBox="0 0 1024 1024" version="1.1" xmlns="http://www.w3.org/2000/svg" p-id="2496" xmlns:xlink="http://www.w3.org/1999/xlink" width="200" height="200"><defs><style type="text/css"></style></defs><path d="M433.731 908.88c-0.159 51.044-33.593 95.413-81.063 107.575-58.2 15.793-118.184-19.462-133.663-78.807-10.65-39.493 0.98-81.88 30.042-109.489L100.668 263.537 0.561 205.043l36.356-63.971 125.618 74.18 152.86 583.185c35.17-2.7 69.422 12.514 91.96 40.839l592.5-162.24 19.095 71.468-585.219 160.323z m508.684-293l-523.2 142.671c-19.124 5.328-38.846-6.158-44.554-25.95L234.484 199.459c-5.448-19.462 6.365-39.882 25.46-45.465L783.19 11.217c19.124-5.328 38.846 6.158 44.554 25.95l140.13 533.2a37.567 37.567 0 0 1-3.323 28.477 34.782 34.782 0 0 1-22.137 16.988zM571.112 333.937l19.095 71.469 211.213-57.43-19.095-71.522-211.214 57.434z m267.682 156.767l-19.095-71.415-351.338 95.557 19.146 71.415 351.343-95.557z" p-id="2497"></path></svg>