<?xml version="1.0" standalone="no"?><!DOCTYPE svg PUBLIC "-//W3C//DTD SVG 1.1//EN" "http://www.w3.org/Graphics/SVG/1.1/DTD/svg11.dtd"><svg t="1591584453962" class="icon" viewBox="0 0 1024 1024" version="1.1" xmlns="http://www.w3.org/2000/svg" p-id="1338" xmlns:xlink="http://www.w3.org/1999/xlink" width="200" height="200"><defs><style type="text/css"></style></defs><path d="M572.09419262 671.36744219h-117.24259149c-20.76784598 0-37.55887038 19.58952848-37.55887038 43.89232696v309.30834436h192.36033226V715.25976915c0-24.15550879-16.79102442-43.89232697-37.55887039-43.89232696z" p-id="1339"></path><path d="M906.88365296 210.93987815L591.53643141 21.23076028c-48.1637279-29.01606849-107.96334115-29.01606849-156.12706907 0L120.06214078 210.93987815c-32.99289006 19.88410785-53.61344636 56.70652981-53.61344636 96.18016613l56.26466075 607.86454151c1.03102783 60.53606169 49.04746604 109.43623803 108.11063084 109.43623804h111.49829365V715.25976915c0-65.54391107 50.52036291-118.86277805 112.52932147-118.86277804h117.24259149c62.00895857 0 112.52932147 53.31886698 112.52932147 118.86277804v309.30834436h111.49829365c58.91587511 0 107.07960303-48.90017634 108.11063085-109.43623802l56.11737104-604.32958902 0.14728969-3.5349525c0-39.47363634-20.47326659-76.44334797-53.61344636-96.32745582z" p-id="1340"></path></svg>