<?xml version="1.0" standalone="no"?><!DOCTYPE svg PUBLIC "-//W3C//DTD SVG 1.1//EN" "http://www.w3.org/Graphics/SVG/1.1/DTD/svg11.dtd"><svg t="1592791563119" class="icon" viewBox="0 0 1024 1024" version="1.1" xmlns="http://www.w3.org/2000/svg" p-id="2615" xmlns:xlink="http://www.w3.org/1999/xlink" width="200" height="200"><defs><style type="text/css"></style></defs><path d="M738.29 492.053l-164.713 97.326a60.235 60.235 0 0 0-29.593 51.859v196.548a60.235 60.235 0 0 0 29.593 51.86L738.29 986.97a60.235 60.235 0 0 0 61.284 0l164.714-97.326a60.235 60.235 0 0 0 29.593-51.859V641.238a60.235 60.235 0 0 0-29.593-51.86l-164.714-97.325a60.235 60.235 0 0 0-61.284 0zM30.119 641.238v196.548a60.235 60.235 0 0 0 29.593 51.86l164.714 97.325a60.235 60.235 0 0 0 61.284 0l164.714-97.326a60.235 60.235 0 0 0 29.593-51.859V641.238a60.235 60.235 0 0 0-29.593-51.86L285.71 492.054a60.235 60.235 0 0 0-61.284 0L59.71 589.379a60.235 60.235 0 0 0-29.593 51.859z m677.238-506.883L542.642 37.029a60.235 60.235 0 0 0-61.284 0l-164.714 97.326a60.235 60.235 0 0 0-29.593 51.859v196.548a60.235 60.235 0 0 0 29.593 51.86l164.714 97.325a60.235 60.235 0 0 0 61.284 0l164.714-97.326a60.235 60.235 0 0 0 29.593-51.859V186.214a60.235 60.235 0 0 0-29.593-51.86z" p-id="2616"></path></svg>