<?xml version="1.0" standalone="no"?><!DOCTYPE svg PUBLIC "-//W3C//DTD SVG 1.1//EN" "http://www.w3.org/Graphics/SVG/1.1/DTD/svg11.dtd"><svg t="1591585016201" class="icon" viewBox="0 0 1024 1024" version="1.1" xmlns="http://www.w3.org/2000/svg" p-id="1584" xmlns:xlink="http://www.w3.org/1999/xlink" width="200" height="200"><defs><style type="text/css"></style></defs><path d="M544 18.496l379.392 219.008a64 64 0 0 1 32 55.424v438.144a64 64 0 0 1-32 55.424L544 1005.44a64 64 0 0 1-64 0L100.608 786.56a64 64 0 0 1-32-55.424V292.928a64 64 0 0 1 32-55.424L480 18.56a64 64 0 0 1 64 0z m0.192 544.32l279.296-195.584a32 32 0 1 0-36.736-52.48l-274.496 192.32L240.768 314.88a32 32 0 0 0-36.992 52.224l276.416 195.584v265.408a32 32 0 0 0 64 0v-265.28z" p-id="1585"></path></svg>