<?xml version="1.0" standalone="no"?><!DOCTYPE svg PUBLIC "-//W3C//DTD SVG 1.1//EN" "http://www.w3.org/Graphics/SVG/1.1/DTD/svg11.dtd"><svg t="1594169813392" class="icon" viewBox="0 0 1024 1024" version="1.1" xmlns="http://www.w3.org/2000/svg" p-id="2682" xmlns:xlink="http://www.w3.org/1999/xlink" width="200" height="200"><defs><style type="text/css"></style></defs><path d="M512.2 224C292.2 224 113 403.2 113 623.2s179.2 399.2 399.2 399.2 399.2-179.2 399.2-399.2S732.1 224 512.2 224z m116.1 585.9l-120.2-65.2-122.2 61.8s-3.4 0.7-7.5-2-3.4-6.8-3.4-6.8l25.1-134.4-97.1-97.8s-2-3.4-1.4-7.5c0.7-4.1 4.1-5.4 4.1-5.4l137.8-18.3L506 412s2-2 6.8-2 7.5 2 7.5 2l59.1 123.6 135.8 21.7s2.7 2 3.4 6.8c0.7 4.1-0.7 7.5-0.7 7.5l-99.1 93.7 21 136.5s0 3.4-4.8 6.1c-4.7 2.7-6.7 2-6.7 2zM349.9 21.6c0-8.2 2.7-14.9 7.5-21H129.9c-19 0-34.6 15.6-34.6 34.6v177.2c0 9.5 4.1 19 11.5 25.8L157 283c9.5 8.1 21.7 10.9 33.3 7.5 45.5-44.1 99.8-78.8 159.6-101.2V21.6z m253.2 0c0-8.2 2.7-14.9 7.5-21H411.7c4.8 6.1 7.5 12.9 7.5 21V169c29.9-6.1 61.1-9.5 93-9.5 31.2 0 61.8 3.4 91 8.8V21.6zM894.4 0.6H664.9c4.8 6.1 7.5 12.9 7.5 21V188c63.8 23.8 120.9 61.1 168.4 108.6 8.8 0 16.3-3.4 22.4-9.5l54.3-48.9c7.5-6.8 11.5-16.3 11.5-25.8V35.2c0-19-15.6-34.6-34.6-34.6z m0 0" p-id="2683"></path></svg>