<?xml version="1.0" standalone="no"?><!DOCTYPE svg PUBLIC "-//W3C//DTD SVG 1.1//EN" "http://www.w3.org/Graphics/SVG/1.1/DTD/svg11.dtd"><svg t="1591584646431" class="icon" viewBox="0 0 1113 1024" version="1.1" xmlns="http://www.w3.org/2000/svg" p-id="1209" xmlns:xlink="http://www.w3.org/1999/xlink" width="217.3828125" height="200"><defs><style type="text/css"></style></defs><path d="M820.6461696-34.13333333l332.414192 189.99805013v854.73257173L820.6461696 820.6461696l-284.92614507 189.95111893-284.92614613-94.97502613L-34.13333333 1058.13333333V183.4560384L250.79281173 60.8416928 535.71895787 203.3068992 820.64723627-34.13333333zM583.2080704 310.15340373a35.61550187 35.61550187 0 0 0-35.61656747 35.6144352V773.1591904l0.33278507 4.84245333a35.61550187 35.61550187 0 0 0 70.8982176-4.84245333V345.7689056l-0.33065173-4.84352107a35.61550187 35.61550187 0 0 0-35.28378347-30.7719808zM274.53576853 286.40938027A35.61550187 35.61550187 0 0 0 238.92133333 322.02488213v427.3902848l0.33278614 4.84245334a35.61550187 35.61550187 0 0 0 70.8982176-4.84245334V322.02488213l-0.3317184-4.84352106a35.61550187 35.61550187 0 0 0-35.28378347-30.7719808z m593.59738134-118.72011627a35.61550187 35.61550187 0 0 0-35.61550187 35.61656853v427.38921814l0.3317184 4.84458666a35.61550187 35.61550187 0 0 0 70.89928427-4.84458666V203.3068992l-0.3317184-4.84458773a35.61550187 35.61550187 0 0 0-35.2837824-30.7719808z" p-id="1210"></path></svg>