<?xml version="1.0" standalone="no"?><!DOCTYPE svg PUBLIC "-//W3C//DTD SVG 1.1//EN" "http://www.w3.org/Graphics/SVG/1.1/DTD/svg11.dtd"><svg t="1591955280025" class="icon" viewBox="0 0 1024 1024" version="1.1" xmlns="http://www.w3.org/2000/svg" p-id="1799" xmlns:xlink="http://www.w3.org/1999/xlink" width="200" height="200"><defs><style type="text/css"></style></defs><path d="M960 512a445.22 445.22 0 0 1-448 448A445.22 445.22 0 0 1 64 512 445.22 445.22 0 0 1 512 64a445.22 445.22 0 0 1 448 448zM627.2 332.8c0-19.237-19.163-38.4-38.4-38.4H313.563c-19.163 0-38.326 19.163-38.326 38.4s19.163 38.4 38.326 38.4H588.8c19.163 0 38.4-19.237 38.4-38.4zM492.837 691.2c0-19.163-19.237-38.4-38.474-38.4h-204.8c-19.163 0-38.326 19.163-38.326 38.4s19.163 38.4 38.4 38.4h204.8c19.163 0 38.326-19.163 38.326-38.4z m294.326 0c0-19.163-19.163-38.4-38.326-38.4H652.8c-19.237 0-38.4 19.163-38.4 38.4s19.163 38.4 38.4 38.4h96.037c25.6 0 38.326-19.163 38.326-38.4z m0-179.2c0-19.237-19.163-38.4-38.326-38.4h-320c-19.237 0-38.474 19.237-38.474 38.4 0 19.237 19.237 38.4 38.474 38.4h320c25.6 0 38.326-19.237 38.326-38.4z m-64-179.2c0-19.237-19.163-38.4-38.326-38.4-19.237 0-38.4 19.163-38.4 38.4s19.163 38.4 38.4 38.4c25.6 0 38.326-19.237 38.326-38.4z" p-id="1800"></path></svg>