<?xml version="1.0" standalone="no"?><!DOCTYPE svg PUBLIC "-//W3C//DTD SVG 1.1//EN" "http://www.w3.org/Graphics/SVG/1.1/DTD/svg11.dtd"><svg t="1591585151917" class="icon" viewBox="0 0 1024 1024" version="1.1" xmlns="http://www.w3.org/2000/svg" p-id="1456" xmlns:xlink="http://www.w3.org/1999/xlink" width="200" height="200"><defs><style type="text/css"></style></defs><path d="M904.704 129.536L512 5.12 119.296 129.536c-14.848 4.608-24.576 18.432-24.576 33.792v496.64c1.024 3.584 19.456 84.992 99.84 164.352 61.952 60.928 209.92 139.264 274.944 173.056 10.24 5.12 14.848 7.168 18.944 9.728l18.944 9.728c5.12 2.56 14.336 2.56 18.944 0l18.944-9.728c37.888-18.432 212.992-112.128 284.16-182.784 80.384-79.36 98.816-160.768 99.84-164.352V163.84c0.512-15.872-9.728-29.184-24.576-34.304zM516.608 940.032c0.512 0 0 0 0 0z m93.696-288.768h-63.488v89.6c0 20.48-16.896 37.376-37.376 37.376s-37.376-16.896-37.376-37.376V508.416c-6.656-2.048-13.824-4.608-20.48-7.68-23.04-10.752-43.008-29.696-56.32-51.2-13.824-22.528-20.992-50.688-18.944-77.312 2.56-30.208 13.312-56.32 32.768-79.872 33.28-40.448 94.72-56.832 143.872-38.912 27.648 10.24 50.688 27.136 67.584 51.2 14.848 20.992 22.528 47.616 23.552 73.216v4.608c-2.048 57.344-40.96 111.104-97.28 126.464v66.048h63.488c20.48 0 37.376 16.896 37.376 37.376v1.536c0.512 20.992-16.384 37.376-37.376 37.376z" p-id="1457"></path></svg>