<?xml version="1.0" standalone="no"?><!DOCTYPE svg PUBLIC "-//W3C//DTD SVG 1.1//EN" "http://www.w3.org/Graphics/SVG/1.1/DTD/svg11.dtd"><svg t="1591584512389" class="icon" viewBox="0 0 1024 1024" version="1.1" xmlns="http://www.w3.org/2000/svg" p-id="1209" xmlns:xlink="http://www.w3.org/1999/xlink" width="200" height="200"><defs><style type="text/css"></style></defs><path d="M719.19843555 862.41052445c-63.39242667 32.44828445-133.13365333 51.9168-209.21457777 51.9168-76.07978667 0-145.82101333-19.46851555-202.88739556-45.43829334l-50.71644444 45.43829334c-38.03932445 38.92565333-12.67484445 110.30983111 44.3904 110.3098311h431.11537777c57.05500445 0 82.41834667-64.89543111 44.37902223-110.3098311l-57.06638223-51.9168z m-209.21457777-635.92675556c101.44426667 0 183.85123555 84.35256889 183.85123555 188.18503111 0 103.82108445-82.40696889 188.17251555-183.85123555 188.17251555s-183.86147555-84.35143111-183.86147556-188.17251555c0-103.83246222 82.41834667-188.18389333 183.85009778-188.18389333z m0-227.12092444C281.74449778-0.63715555 104.22044445 187.54673778 104.22044445 414.6688c0 227.10954667 177.52405333 421.78446222 405.76341333 421.78446222 228.24049778 0 405.76455111-188.18503111 405.76455111-415.29457777 0-227.12206222-177.52405333-421.79584-405.76455111-421.79584z" p-id="1210"></path></svg>