<?xml version="1.0" standalone="no"?><!DOCTYPE svg PUBLIC "-//W3C//DTD SVG 1.1//EN" "http://www.w3.org/Graphics/SVG/1.1/DTD/svg11.dtd"><svg t="1592791589763" class="icon" viewBox="0 0 1087 1024" version="1.1" xmlns="http://www.w3.org/2000/svg" p-id="2151" xmlns:xlink="http://www.w3.org/1999/xlink" width="212.3046875" height="200"><defs><style type="text/css"></style></defs><path d="M894.130285 95.514003H740.582277c-7.253179-31.434253-36.270658-55.615327-70.122637-55.615327H594.290305c-9.671858-24.180121-32.64264-39.897724-59.24144-39.897724s-49.570534 15.717603-59.242392 39.898676h-77.378674c-33.851979 0-62.868506 24.180121-70.122637 55.614375H174.759058c-39.898676 0-70.12359 32.643592-70.123589 72.541316V949.087617c0 39.898676 31.434253 72.541316 70.122637 72.541316H892.920946c39.898676 0 73.750656-32.64264 73.750655-72.541316V168.056271c1.209339-39.898676-32.64264-72.541316-72.541316-72.541316z m-357.873033 35.061318c32.643592 0 58.034005 26.599752 58.034006 58.034006 0 32.643592-26.5988 58.033053-58.034006 58.033053-32.64264 0-58.033053-26.5988-58.033053-58.033053s25.389461-58.033053 58.033053-58.033053z m221.251967 600.886443c0 14.509215-12.090537 26.5988-26.5988 26.5988H341.605038c-14.508263 0-26.5988-12.089585-26.5988-26.5988v-24.180122c0-14.508263 12.090537-26.5988 26.5988-26.5988h389.306333c14.508263 0 26.5988 12.090537 26.5988 26.5988v24.180122z m0-245.432088c0 14.508263-12.090537 26.5988-26.5988 26.5988H341.605038c-14.508263 0-26.5988-12.090537-26.5988-26.5988v-24.180122c0-14.508263 12.090537-26.5988 26.5988-26.5988h389.306333c14.508263 0 26.5988 12.090537 26.5988 26.5988v24.180122z" p-id="2152"></path></svg>