<?xml version="1.0" standalone="no"?><!DOCTYPE svg PUBLIC "-//W3C//DTD SVG 1.1//EN" "http://www.w3.org/Graphics/SVG/1.1/DTD/svg11.dtd"><svg t="1533694894799" class="icon" style="" viewBox="0 0 1024 1024" version="1.1" xmlns="http://www.w3.org/2000/svg" p-id="1310" data-spm-anchor-id="a313x.7781069.0.i11" xmlns:xlink="http://www.w3.org/1999/xlink" width="200" height="200"><defs><style type="text/css"></style></defs><path d="M512 0C229.232 0 0 229.23 0 512s229.23 512 512 512 512-229.23 512-512S794.77 0 512 0z m0 993.808C245.906 993.808 30.192 778.094 30.192 512S245.906 30.192 512 30.192c266.098 0 481.808 215.712 481.808 481.808 0 266.094-215.71 481.808-481.808 481.808z" fill="#777777" p-id="1311" data-spm-anchor-id="a313x.7781069.0.i9" class="selected"></path><path d="M206 272h612v206H206zM512 762c150.186 0 272.536-119.1 277.802-268H234.198c5.268 148.9 127.616 268 277.802 268z" fill="#777777" p-id="1312" data-spm-anchor-id="a313x.7781069.0.i6" class=""></path><path d="M408 666m-24 0a24 24 0 1 0 48 0 24 24 0 1 0-48 0Z" fill="#FFFFFF" p-id="1313"></path></svg>