<?xml version="1.0" encoding="utf-8"?>
<!-- Generator: Adobe Illustrator 19.0.0, SVG Export Plug-In . SVG Version: 6.00 Build 0)  -->
<svg version="1.1" id="图层_1" xmlns="http://www.w3.org/2000/svg" xmlns:xlink="http://www.w3.org/1999/xlink" x="0px" y="0px"
	 viewBox="-399 501 200 200" style="enable-background:new -399 501 200 200;" xml:space="preserve">
<style type="text/css">
	.st0{fill:#FFFFFF;}
	.st1{fill:#777777;}
</style>
<circle class="st0" cx="-299.3" cy="601" r="98"/>
<path class="st1" d="M-299,501c-55.2,0-100,44.8-100,100s44.8,100,100,100s100-44.8,100-100S-243.8,501-299,501z M-299,695.1
	c-52,0-94.1-42.1-94.1-94.1s42.1-94.1,94.1-94.1c52,0,94.1,42.1,94.1,94.1C-204.9,653-247,695.1-299,695.1z"/>
<path class="st1" d="M-358.8,554.1h119.5v40.2h-119.5V554.1z M-299,649.8c29.3,0,53.2-23.3,54.3-52.3h-108.5
	C-352.2,626.6-328.3,649.8-299,649.8z"/>
<path class="st0" d="M-324,631.1c0,2.6,2.1,4.7,4.7,4.7s4.7-2.1,4.7-4.7s-2.1-4.7-4.7-4.7S-324,628.5-324,631.1z"/>
</svg>
