<?xml version="1.0" encoding="utf-8"?>
<!-- Generator: Adobe Illustrator 19.0.0, SVG Export Plug-In . SVG Version: 6.00 Build 0)  -->
<svg version="1.1" id="图层_1" xmlns="http://www.w3.org/2000/svg" xmlns:xlink="http://www.w3.org/1999/xlink" x="0px" y="0px"
	 viewBox="-399 501 200 200" style="enable-background:new -399 501 200 200;" xml:space="preserve">
<style type="text/css">
	.st0{fill:#FFFFFF;}
	.st1{fill:#777777;}
</style>
<circle class="st0" cx="-299" cy="600.7" r="97.2"/>
<path class="st1" d="M-299,501c-55.2,0-100,44.8-100,100s44.8,100,100,100s100-44.8,100-100S-243.8,501-299,501z M-299,695.1
	c-52,0-94.1-42.1-94.1-94.1s42.1-94.1,94.1-94.1c52,0,94.1,42.1,94.1,94.1S-247,695.1-299,695.1z"/>
<path class="st1" d="M-270.2,635.1l-67.5-46.9c-2-1.4-4.7-1.1-6,0.8c-1.3,1.8-0.7,4.5,1.3,5.9l25,17.4c-1,0.2-1.9,0.8-2.4,1.7
	l-9.5,15.1h-17.9v-27.9c0-3.2-1.8-5.9-4-5.9s-4,2.6-4,5.9V644c0,3.2,1.8,5.9,4,5.9s4-2.6,4-5.9v-6.9h19.4c0.8,0,1.5-0.2,2.2-0.7
	c0.9-0.2,1.7-0.8,2.2-1.6l10.5-16.6c0.5-0.8,0.7-1.7,0.5-2.6l37.5,26.1c2,1.4,4.7,1.1,6-0.8C-267.6,639.1-268.2,636.5-270.2,635.1
	L-270.2,635.1z M-245.5,605.4l-79-52.3c-2.8-1.9-6.6-1.1-8.4,1.7l-10.4,15.3c-1.9,2.8-1.1,6.6,1.7,8.4l72.2,47.8
	c2.8,1.9,5.6,0.1,8.4-1.7l17.2-10.8C-241.9,611-242.7,607.2-245.5,605.4L-245.5,605.4z"/>
</svg>
