<?xml version="1.0" encoding="utf-8"?>
<!-- Generator: Adobe Illustrator 23.0.0, SVG Export Plug-In . SVG Version: 6.00 Build 0)  -->
<svg version="1.1" id="图层_1" xmlns="http://www.w3.org/2000/svg" xmlns:xlink="http://www.w3.org/1999/xlink" x="0px" y="0px"
	 viewBox="0 0 200 200" style="enable-background:new 0 0 200 200;" xml:space="preserve">
<style type="text/css">
	.st0{fill:#FFFFFF;}
	.st1{fill:#0090DF;}
</style>
<circle class="st0" cx="100" cy="99.7" r="97.2"/>
<path class="st1" d="M100,0C44.8,0,0,44.8,0,100s44.8,100,100,100s100-44.8,100-100S155.2,0,100,0z M100,194.1
	C48,194.1,5.9,152,5.9,100S48,5.9,100,5.9S194.1,48,194.1,100S152,194.1,100,194.1z"/>
<path class="st1" d="M143.8,50.3H94.3c-1.8,0-3.2,1.5-3.2,3.5c0,1.9,1.5,3.5,3.3,3.5h49.5c0.6,0,1.1,0.6,1.1,1.2v52.8
	c0,0.9,0.2,1.8,0.8,2.5c0.6,0.7,1.5,1.1,2.4,1.1c1.8,0,3.2-1.6,3.2-3.5V58.6C151.5,54,148,50.3,143.8,50.3z"/>
<path class="st1" d="M132.1,62.7H82.6c-1.8,0-3.3,1.6-3.3,3.5s1.5,3.5,3.3,3.5h49.5c0.6,0,1.1,0.6,1.1,1.2v52.9c0,2,1.4,3.5,3.2,3.5
	c1.8,0,3.3-1.6,3.3-3.5V70.9C139.8,66.4,136.3,62.7,132.1,62.7z"/>
<path class="st1" d="M120.4,75.1H65.1c-4.2,0-7.7,3.7-7.7,8.2v52.8c0,4.5,3.5,8.2,7.7,8.2h55.3c4.2,0,7.7-3.7,7.7-8.2V83.3
	C128.2,78.8,124.7,75.1,120.4,75.1z M64,83.3c0-0.7,0.5-1.2,1.1-1.2h55.3c0.6,0,1.1,0.6,1.1,1.2v52.8c0,0.7-0.5,1.2-1.1,1.2H65.1
	c-0.6,0-0.9-0.4-1-0.8l-0.1-0.3C64,136.3,64,83.3,64,83.3z"/>
</svg>
